<?xml version="1.0" encoding="UTF-8"?>
<svg xmlns="http://www.w3.org/2000/svg"
     viewBox="0 0 936 936"
     width="32"
     height="32"
     preserveAspectRatio="xMidYMid meet">

  <g transform="translate(299,0)">
<path d="M0 0 C0.85667267 0.00359528 1.71334534 0.00719055 2.59597778 0.01089478 C3.4934523 0.01074875 4.39092682 0.01060272 5.31559753 0.01045227 C8.29702123 0.01115175 11.27838329 0.01894575 14.25979614 0.02676392 C16.32102932 0.02862797 18.38226293 0.03005193 20.4434967 0.03105164 C25.88017999 0.03487779 31.31683675 0.04470891 36.75350952 0.05575562 C42.29661704 0.06596764 47.83972882 0.07054881 53.38284302 0.07559204 C64.26762033 0.08633109 75.15237791 0.10340868 86.03713989 0.12442017 C87.88224826 5.28214842 89.1252839 10.49571927 90.33694458 15.82754517 C90.5585878 16.79197037 90.78023102 17.75639557 91.0085907 18.75004578 C91.74493957 21.95751916 92.47701343 25.16595206 93.20901489 28.37442017 C93.73289288 30.66117555 94.25700673 32.94787691 94.78134155 35.23452759 C95.88940931 40.06964699 96.99553149 44.90520584 98.10012817 49.74111938 C99.46880059 55.73309091 100.84064673 61.72432882 102.2138586 67.71526146 C108.63321357 95.72333479 114.99436026 123.74430041 121.31607682 151.77456295 C127.53193384 179.33537446 133.78713864 206.88719867 140.05104828 234.43712616 C140.99611949 238.59378368 141.94098422 242.75048813 142.88583374 246.90719604 C151.88042821 286.47664674 160.88629783 326.04352598 169.90457046 365.60758698 C172.06162332 375.07085067 174.21703997 384.53448477 176.37068462 393.99852467 C177.95397036 400.95604691 179.53822597 407.91334816 181.12307739 414.87051392 C181.27518433 415.53828063 181.42729126 416.20604734 181.5840075 416.89404941 C185.332118 433.34692377 189.10727201 449.79303467 192.94890213 466.22434998 C193.5609361 468.84422741 194.17118257 471.46451347 194.78063965 474.08499146 C194.9715877 474.90592915 195.16253574 475.72686684 195.3592701 476.57268143 C195.72936536 478.16404882 196.09937698 479.75543567 196.46929741 481.34684372 C197.48092056 485.69318073 198.50527369 490.03622347 199.54123497 494.37682056 C200.27997162 497.48675122 201.00080585 500.6008366 201.72463989 503.71426392 C201.98121368 504.76654678 202.23778748 505.81882965 202.50213623 506.90299988 C204.67209097 516.37499872 203.65747237 523.52527725 200.10745239 532.46817017 C199.8058168 533.2533754 199.50418121 534.03858063 199.19340515 534.84757996 C198.19312258 537.44390987 197.17770696 540.03403485 196.16213989 542.62442017 C195.4421965 544.4839976 194.72322506 546.34395158 194.00515747 548.20425415 C192.47886323 552.15256521 190.94599653 556.09823277 189.40774536 560.04190063 C187.06609052 566.04560367 184.739687 572.05513267 182.41604614 578.06582642 C178.44644837 588.32856708 174.46391583 598.58624736 170.47805786 608.84268188 C168.02863925 615.14558427 165.58129712 621.44929103 163.13479614 627.75332642 C162.53035927 629.31046608 162.53035927 629.31046608 161.91371155 630.89906311 C159.91435872 636.05095308 157.91748726 641.20378219 155.92556763 646.35855103 C152.51251743 655.18757076 149.09197674 664.01241122 145.59359741 672.80804443 C144.15318803 676.43350292 142.72448401 680.06351266 141.29727173 683.69418335 C140.63200051 685.37705826 139.96099501 687.05767934 139.28384399 688.73580933 C138.35882316 691.02912171 137.45378184 693.32940515 136.55276489 695.63223267 C136.27988647 696.29344116 136.00700806 696.95464966 135.7258606 697.63589478 C132.44455188 706.17479252 136.01390553 713.26273851 139.17385864 721.27285767 C139.60073975 722.37263947 140.02762085 723.47242126 140.46743774 724.60552979 C141.63535045 727.6107871 142.80972801 730.61342016 143.98684311 733.61508179 C145.23422762 736.80091095 146.47292818 739.99011156 147.71218872 743.17910767 C149.52159287 747.83346455 151.3333099 752.48690742 153.14799023 757.13920975 C157.75029944 768.93962764 162.30467607 780.75841017 166.85797119 792.57781982 C173.90568838 810.86713615 180.9785395 829.14668517 188.06814575 847.4197998 C189.26451022 850.50358916 190.46047507 853.58753315 191.65628052 856.67153931 C192.03392548 857.64547134 192.41157043 858.61940338 192.80065918 859.62284851 C193.53441878 861.51520708 194.2681635 863.40757142 195.00189209 865.29994202 C196.88243853 870.14940027 198.76521298 874.99798076 200.65081787 879.84547424 C201.8446058 882.91664995 203.03436347 885.98938189 204.22463989 889.06192017 C204.62908325 890.09824585 205.03352661 891.13457153 205.45022583 892.20230103 C205.97858032 893.56947266 205.97858032 893.56947266 206.51760864 894.96426392 C206.81562378 895.73117554 207.11363892 896.49808716 207.42068481 897.28823853 C208.03713989 899.12442017 208.03713989 899.12442017 208.03713989 901.12442017 C162.15000394 901.20761435 116.26374386 901.08082855 70.37698364 900.90567017 C69.65929701 900.90293358 68.94161039 900.900197 68.20217568 900.89737749 C49.68267548 900.82669997 31.16318623 900.75333543 12.64370024 900.67903805 C1.89342025 900.63593475 -8.85686245 900.59356184 -19.60714722 900.55166626 C-20.37354824 900.54867926 -21.13994926 900.54569227 -21.92957456 900.54261476 C-25.77762895 900.52762092 -29.62568338 900.51263882 -33.47373784 900.49766254 C-64.97011922 900.37506655 -96.46649221 900.25043423 -127.96286011 900.12442017 C-127.00782975 897.40854668 -126.05195431 894.69297555 -125.09559631 891.97756958 C-124.82721939 891.21409336 -124.55884246 890.45061714 -124.2823329 889.66400528 C-122.24862196 883.89270883 -120.11919777 878.16645652 -117.88864136 872.46817017 C-117.52749237 871.53895752 -117.16634338 870.60974487 -116.79425049 869.65237427 C-115.62368776 866.64211558 -114.4495061 863.63328278 -113.27536011 860.62442017 C-112.43433544 858.463073 -111.59360293 856.30161212 -110.75314331 854.14004517 C-109.01463486 849.66954203 -107.27489548 845.19952113 -105.53414917 840.72988892 C-101.56322156 830.53181636 -97.60662455 820.328188 -93.65036011 810.12442017 C-93.26815308 809.1388916 -92.88594604 808.15336304 -92.49215698 807.13796997 C-85.97839938 790.3414495 -79.48112686 773.53857996 -72.9926796 756.73226929 C-72.28896299 754.90965148 -71.58506555 753.08710349 -70.88116455 751.26455688 C-70.43270172 750.10327271 -69.98423889 748.94198853 -69.52218628 747.74551392 C-69.08254044 746.60731201 -68.64289459 745.46911011 -68.18992615 744.29641724 C-67.33190055 742.07096962 -66.47608525 739.84466837 -65.62263489 737.61746216 C-63.62511399 732.40629428 -61.60221701 727.20939238 -59.5072937 722.03652954 C-59.12647141 721.08095154 -58.74564911 720.12537354 -58.35328674 719.14083862 C-57.64673741 717.36986289 -56.92794527 715.60369759 -56.19413757 713.84384155 C-52.5049246 704.50795214 -55.68064234 697.63934597 -59.20504761 688.69473267 C-59.64013138 687.57307709 -60.07521515 686.45142151 -60.52348328 685.29577637 C-61.70778486 682.24658544 -62.89858205 679.20003149 -64.09228134 676.1545105 C-65.34996835 672.9408898 -66.59902962 669.72392042 -67.84884644 666.50723267 C-69.89629545 661.240342 -71.94820145 655.97521037 -74.00338745 650.71133423 C-76.67357343 643.87132402 -79.33118556 637.02649545 -81.98239136 630.17910767 C-82.3738736 629.16812515 -82.76535583 628.15714264 -83.16870117 627.11552429 C-83.94529321 625.10992637 -84.72185407 623.10431637 -85.49838257 621.09869385 C-87.42335604 616.12863345 -89.35115538 611.15967032 -91.27926636 606.19082642 C-91.65977142 605.21020737 -92.04027649 604.22958832 -92.43231201 603.21925354 C-94.875554 596.923642 -97.32095351 590.62887116 -99.76731873 584.33447266 C-101.46675539 579.96127635 -103.16513712 575.58767072 -104.86340332 571.21401978 C-105.65923958 569.16531117 -106.45557802 567.11679754 -107.25250244 565.06851196 C-109.09238265 560.33956162 -110.92497456 555.60812234 -112.74118042 550.87002563 C-114.30369704 546.79961084 -115.91676424 542.75267335 -117.55172729 538.71084595 C-118.39489873 536.57933017 -119.23768238 534.44766094 -120.08004761 532.31582642 C-120.48345367 531.34346542 -120.88685974 530.37110443 -121.30249023 529.36927795 C-121.66591522 528.43712967 -122.02934021 527.50498138 -122.40377808 526.54458618 C-122.72957855 525.73747696 -123.05537903 524.93036774 -123.39105225 524.09880066 C-124.91743761 516.1589818 -122.380162 507.76528293 -120.58737183 500.03018188 C-120.34371132 498.95662445 -120.10005081 497.88306702 -119.84900665 496.77697754 C-119.03593507 493.2013504 -118.21423801 489.62776317 -117.39254761 486.05410767 C-116.80645481 483.48465724 -116.22085112 480.91509992 -115.63586426 478.34539795 C-114.37483752 472.81038916 -113.10942473 467.2763982 -111.84103394 461.74307251 C-109.98040143 453.62591171 -108.12683514 445.50714941 -106.27497721 437.38798285 C-103.26329486 424.1842721 -100.24679369 410.98166768 -97.22750854 397.7796936 C-93.18600209 380.10735644 -89.15458352 362.43272987 -85.12692261 344.75723267 C-84.80672868 343.352114 -84.48653317 341.94699569 -84.16633606 340.54187775 C-82.88895643 334.93632528 -81.61160308 329.33076683 -80.33435059 323.72518539 C-78.24849589 314.57098916 -76.16171368 305.41700475 -74.07431602 296.26316023 C-65.36894458 258.08746213 -56.67914566 219.90824736 -48.00282651 181.72593611 C-46.90975919 176.91571517 -45.81645945 172.10554709 -44.72302246 167.29541016 C-42.88472262 159.20852851 -41.04665902 151.12159322 -39.20895386 143.03457642 C-38.98406749 142.04494121 -38.98406749 142.04494121 -38.75463796 141.03531337 C-34.47102511 122.18419162 -30.1964427 103.33104093 -25.92868948 84.47632265 C-24.01083161 76.00385524 -22.09061847 67.53192156 -20.17022705 59.06002808 C-18.51040214 51.73653764 -16.85382493 44.41232259 -15.19973469 37.0875349 C-14.19498348 32.64161565 -13.18725183 28.19637609 -12.17864799 23.75132942 C-11.71304297 21.69640224 -11.24872317 19.6411834 -10.78575325 17.58566093 C-10.1589195 14.80329616 -9.52766463 12.02197208 -8.89523315 9.24087524 C-8.7121139 8.42292669 -8.52899464 7.60497814 -8.34032631 6.76224327 C-6.85659064 0.27501093 -6.69603837 0.01186986 0 0 Z M8.03713989 17.12442017 C2.92936553 39.42760419 2.92936553 39.42760419 -2.17379761 61.73184204 C-4.255047 70.83300075 -6.33679442 79.93404343 -8.42184448 89.03433228 C-9.94064719 95.66322145 -11.45770913 102.29250625 -12.97272742 108.92226142 C-13.77413513 112.42896588 -14.57638232 115.93547326 -15.38071823 119.44150734 C-16.28106749 123.3662059 -17.17752724 127.2917834 -18.07369995 131.21743774 C-18.46967125 132.93943138 -18.46967125 132.93943138 -18.87364197 134.69621277 C-19.12040176 135.77993164 -19.36716156 136.86365051 -19.62139893 137.98020935 C-19.83341131 138.9066113 -20.0454237 139.83301325 -20.2638607 140.78748798 C-21.2608758 145.5471083 -22.09295391 150.33993609 -22.96286011 155.12442017 C18.61713989 155.12442017 60.19713989 155.12442017 103.03713989 155.12442017 C101.74781771 148.03314816 100.40491892 141.03061667 98.79397583 134.01675415 C98.57898941 133.07180084 98.36400299 132.12684753 98.14250183 131.15325928 C97.43780225 128.05848227 96.7296969 124.96449571 96.02151489 121.87051392 C95.52288082 119.68412269 95.02445125 117.49768482 94.5262146 115.311203 C93.21549999 109.56192589 91.90184739 103.81332391 90.58761597 98.06484985 C89.53128442 93.44228181 88.47696815 88.81925534 87.42278671 84.19619656 C82.3231299 61.83220828 77.19499616 39.47513067 72.03713989 17.12442017 C50.91713989 17.12442017 29.79713989 17.12442017 8.03713989 17.12442017 Z M-26.96286011 173.12442017 C-30.50260287 185.85392686 -33.4753715 198.69958935 -36.41989136 211.57754517 C-36.93222925 213.81336615 -37.44457373 216.04918562 -37.95692444 218.28500366 C-39.02212047 222.9372157 -40.08483113 227.58998816 -41.14620972 232.24307251 C-42.50863259 238.21340709 -43.88107316 244.18139288 -45.25575733 250.14891434 C-46.31367566 254.74920938 -47.36448531 259.35110655 -48.41330528 263.95348358 C-48.91664154 266.15657594 -49.42264429 268.35906083 -49.93134499 270.56092072 C-50.63792827 273.62242075 -51.33448304 276.68603507 -52.02853394 279.75039673 C-52.34710106 281.11550636 -52.34710106 281.11550636 -52.67210388 282.50819397 C-52.95165924 283.7566082 -52.95165924 283.7566082 -53.23686218 285.03024292 C-53.40219861 285.75280399 -53.56753504 286.47536507 -53.73788166 287.21982193 C-54.12576602 289.34459037 -54.12576602 289.34459037 -52.96286011 292.12442017 C-52.0366687 291.43606079 -52.0366687 291.43606079 -51.09176636 290.73379517 C-37.74319051 281.06268086 -24.77860697 277.16460214 -8.18161011 279.51895142 C12.52056998 284.35153863 35.06655254 299.7921974 46.58010864 317.60879517 C54.90021313 331.9738013 58.12643636 346.97102387 54.27932739 363.35098267 C49.6633676 378.36254939 40.71367051 389.65177413 29.59963989 400.43692017 C13.9258318 415.7764204 1.18299733 436.73727817 0.72463989 459.12442017 C0.93272591 478.45750262 10.62135268 492.98938186 24.03713989 506.12442017 C24.71196411 506.82913452 25.38678833 507.53384888 26.08206177 508.25991821 C30.34816489 510.95160935 33.98936084 510.62658701 38.93167114 510.51504517 C39.87902634 510.50938538 40.82638153 510.50372559 41.80244446 510.49789429 C44.81869724 510.47556101 47.83374811 510.42536997 50.84963989 510.37442017 C52.89845082 510.35435124 54.94728043 510.33610116 56.99612427 510.31973267 C62.01025698 510.27570611 67.02349488 510.20669926 72.03713989 510.12442017 C69.29620413 507.33997178 66.53214499 504.91462759 63.41213989 502.56192017 C49.62050142 491.58945485 37.60691347 476.6762444 35.09963989 458.81192017 C34.30958717 444.98599757 39.50697043 434.26100605 48.22463989 423.99942017 C62.47842874 408.79537873 90.83755684 392.28237167 112.04495239 391.00332642 C126.00045626 390.5900101 138.90637609 395.63399124 149.16995239 405.08926392 C160.25747124 416.74591396 164.5816363 431.03653717 164.45462036 446.79580688 C163.78275391 468.29975884 153.2537114 489.07506373 138.03713989 504.12442017 C135.76579778 505.91126856 133.43657444 507.50847445 131.03713989 509.12442017 C131.03713989 509.45442017 131.03713989 509.78442017 131.03713989 510.12442017 C148.52713989 510.12442017 166.01713989 510.12442017 184.03713989 510.12442017 C175.28782008 470.39221488 166.31410863 430.71740849 157.22463989 391.06192017 C156.93766739 389.809888 156.65069489 388.55785583 156.35502625 387.2678833 C155.77186057 384.72362186 155.1886887 382.17936184 154.60551071 379.63510323 C153.12945895 373.19537556 151.6535492 366.75561537 150.17776489 360.31582642 C149.73579144 358.38732534 149.73579144 358.38732534 149.28488922 356.41986465 C142.64704605 327.45421212 136.05560388 298.47804382 129.47463989 269.49942017 C129.2182159 268.3703764 128.96179192 267.24133263 128.6975975 266.07807541 C127.4537831 260.60151172 126.21010877 255.12491627 124.96665955 249.64826965 C124.0245753 245.49895833 123.08216377 241.34972156 122.13948059 237.20054626 C120.04136849 227.96413271 117.94612275 218.72710107 115.86174297 209.48757744 C114.92665245 205.34367985 113.98968715 201.20020729 113.0525074 197.05678177 C112.61093778 195.10205798 112.17030303 193.14712275 111.73064995 191.19196701 C111.12947419 188.51869599 110.52519089 185.84614554 109.92019653 183.17373657 C109.74297876 182.38174992 109.56576099 181.58976326 109.38317299 180.77377701 C108.52218477 176.84401283 108.52218477 176.84401283 107.03713989 173.12442017 C100.39267868 172.29730881 94.60401592 171.62406305 88.70901489 175.06973267 C87.10367895 176.32840221 85.57116055 177.64924137 84.03347778 178.9894104 C77.73388691 184.45174427 70.61226162 187.75049015 63.03713989 191.12442017 C61.78803833 191.68129517 61.78803833 191.68129517 60.51370239 192.24942017 C49.7970031 196.39267937 37.13352754 196.15750799 26.45120239 192.15567017 C20.30479144 189.35668918 12.0899299 184.7537031 9.23806763 178.32241821 C8.06758732 175.92903899 7.21104015 174.7037882 5.03713989 173.12442017 C-0.41592872 172.22282734 -5.77042315 172.46662768 -11.27536011 172.68692017 C-12.794169 172.72205304 -14.31305543 172.75398864 -15.83200073 172.78262329 C-19.54404012 172.85357981 -23.25274159 172.98622917 -26.96286011 173.12442017 Z M30.03713989 173.12442017 C33.98155569 177.06883596 37.21475723 178.12021393 42.65823364 178.12832642 C48.6277973 177.72262791 53.55761004 176.50232935 59.03713989 174.12442017 C59.03713989 173.79442017 59.03713989 173.46442017 59.03713989 173.12442017 C49.46713989 173.12442017 39.89713989 173.12442017 30.03713989 173.12442017 Z M-44.96286011 309.12442017 C-52.9666855 321.28046484 -53.6908441 335.53530975 -50.88424683 349.49917603 C-48.91599199 358.14380688 -45.6813064 365.97907225 -41.94674683 373.98965454 C-32.63746026 394.18826539 -26.55113276 413.26651736 -26.65036011 435.74942017 C-26.65218292 436.40605652 -26.65400574 437.06269287 -26.65588379 437.73922729 C-26.77823499 463.99730957 -34.28781114 486.77432223 -45.96286011 510.12442017 C-29.79286011 510.12442017 -13.62286011 510.12442017 3.03713989 510.12442017 C1.05713989 507.48442017 -0.92286011 504.84442017 -2.96286011 502.12442017 C-4.41647382 499.7370795 -5.78774332 497.40059662 -7.08786011 494.93692017 C-7.42696411 494.29762573 -7.76606812 493.6583313 -8.115448 492.99966431 C-17.93816303 473.87619145 -18.0999132 453.34923018 -11.96286011 433.12442017 C-5.20094852 413.19791197 7.82701899 396.87702549 22.84963989 382.49942017 C32.69599523 372.79680724 37.74293068 362.29320683 39.47463989 348.68692017 C37.65192257 333.84479336 30.29059374 322.67034128 19.03713989 313.12442017 C-0.88642843 297.90013872 -25.47065844 286.64153773 -44.96286011 309.12442017 Z M-68.96286011 355.12442017 C-72.93762667 372.52802941 -76.91053754 389.9320612 -80.88130569 407.33658314 C-82.72549876 415.4197866 -84.57027385 423.50285636 -86.41647339 431.58560181 C-88.02768029 438.63954591 -89.63773993 445.69375077 -91.24648452 452.74825686 C-92.09646419 456.47532564 -92.94697553 460.2022711 -93.79886627 463.92890358 C-97.31256176 479.30135619 -100.80265686 494.6744946 -103.96286011 510.12442017 C-98.82129875 510.38616164 -93.68584429 510.59643368 -88.53927612 510.72866821 C-86.79178294 510.78379775 -85.04479302 510.85873346 -83.29904175 510.95425415 C-73.1712636 511.8516582 -73.1712636 511.8516582 -64.3600769 507.90591431 C-62.51369524 505.04739078 -61.20679429 502.28706791 -59.96286011 499.12442017 C-59.23457292 497.75436734 -58.49519311 496.39009779 -57.74020386 495.03457642 C-57.1150494 493.7577696 -56.50183372 492.47505185 -55.90036011 491.18692017 C-55.57019897 490.48164185 -55.24003784 489.77636353 -54.89987183 489.04971313 C-42.82906383 462.29110401 -38.69481405 429.75988806 -48.82467651 401.7406311 C-50.99567375 396.10710215 -53.44977449 390.61193652 -55.96286011 385.12442017 C-57.22248741 382.33698684 -58.47155838 379.54505932 -59.71286011 376.74942017 C-60.14598511 375.7811731 -60.14598511 375.7811731 -60.58786011 374.79336548 C-62.91968655 369.47625891 -64.61795731 364.11127889 -66.13864136 358.50332642 C-66.7095581 355.95993314 -66.7095581 355.95993314 -68.96286011 355.12442017 Z M58.03713989 439.12442017 C53.73575049 445.24770132 51.33159838 450.87808582 52.34182739 458.39004517 C55.60195001 472.23440149 67.77571724 485.39650046 79.25979614 493.35879517 C89.12246401 499.27395161 98.55083929 502.53093302 110.03713989 500.12442017 C123.06352147 496.40497959 132.23879524 486.4362354 138.71682739 474.91470337 C145.68849376 461.92114626 149.73233668 448.65156949 146.27542114 433.86660767 C142.73587324 423.59772166 136.41204897 415.66046561 127.03713989 410.12442017 C105.70107056 401.82705987 71.35557459 422.75187633 58.03713989 439.12442017 Z M-100.96286011 528.12442017 C-100.04908293 532.69330607 -98.69922658 536.75964363 -97.03317261 541.07754517 C-96.58071922 542.2638427 -96.58071922 542.2638427 -96.11912537 543.47410583 C-95.11273805 546.10910705 -94.1004209 548.74178566 -93.08786011 551.37442017 C-92.36865099 553.25251168 -91.6496616 555.13068736 -90.93087769 557.00894165 C-83.56233649 576.24218051 -76.1084513 595.44260963 -68.6473999 614.6401062 C-65.71062677 622.19706763 -62.77880774 629.75593769 -59.84957886 637.31582642 C-59.42788925 638.40402176 -59.00619965 639.4922171 -58.57173157 640.61338806 C-56.93927823 644.82607756 -55.30683756 649.0387719 -53.67486572 653.25164795 C-53.30157135 654.2152121 -52.92827698 655.17877625 -52.54367065 656.17153931 C-52.22117844 657.0040773 -51.89868622 657.8366153 -51.56642151 658.69438171 C-46.72354473 671.18119443 -41.8433809 683.65197814 -36.96286011 696.12442017 C13.85713989 696.12442017 64.67713989 696.12442017 117.03713989 696.12442017 C130.94214159 660.63183621 130.94214159 660.63183621 144.71368408 625.08840942 C146.982969 619.19186047 149.25636932 613.29689773 151.52932739 607.40176392 C151.98608353 606.21688385 152.44283966 605.03200378 152.91343689 603.81121826 C158.94688303 588.16434351 165.01501333 572.53090956 171.08396912 556.89778137 C171.79156736 555.07399092 172.49853333 553.249955 173.20478821 551.42564392 C174.68141221 547.61154435 176.16238307 543.79964688 177.66946411 539.99746704 C178.12982056 538.82764282 178.590177 537.6578186 179.06448364 536.45254517 C179.45241089 535.47704712 179.84033813 534.50154907 180.24002075 533.49649048 C181.19640941 531.06753565 181.19640941 531.06753565 181.03713989 528.12442017 C87.97713989 528.12442017 -5.08286011 528.12442017 -100.96286011 528.12442017 Z M-36.96286011 714.12442017 C-49.77406538 746.93410029 -49.77406538 746.93410029 -62.48770142 779.78103638 C-64.78872435 785.7556031 -67.09255918 791.72908536 -69.39645386 797.70254517 C-69.86001282 798.90453552 -70.32357178 800.10652588 -70.80117798 801.34494019 C-76.38666635 815.82275079 -82.0016117 830.2891439 -87.62228394 844.75332642 C-91.27018216 854.14488635 -94.90242853 863.54231444 -98.50192261 872.95254517 C-98.85032196 873.86018616 -99.19872131 874.76782715 -99.55767822 875.70297241 C-100.03208847 876.9465451 -100.03208847 876.9465451 -100.51608276 878.21524048 C-100.79634308 878.94817322 -101.07660339 879.68110596 -101.36535645 880.43624878 C-102.01846901 881.98307093 -102.01846901 881.98307093 -101.96286011 883.12442017 C-8.24286011 883.12442017 85.47713989 883.12442017 182.03713989 883.12442017 C177.54223881 870.24482111 177.54223881 870.24482111 172.72463989 857.49942017 C172.29510262 856.4047644 172.29510262 856.4047644 171.85688782 855.28799438 C171.24118294 853.71933311 170.62427768 852.1511425 170.00622559 850.58340454 C168.25566086 846.14147404 166.51597403 841.69528122 164.77542114 837.24942017 C164.39976517 836.29035767 164.02410919 835.33129517 163.6370697 834.34317017 C158.78908204 821.95388947 154.00950542 809.53817942 149.22463989 797.12442017 C147.35903261 792.28577121 145.49311814 787.44724081 143.62698364 782.60879517 C143.16522736 781.41155823 142.70347107 780.21432129 142.22772217 778.98080444 C137.26100674 766.10678492 132.27628754 753.23976018 127.28713989 740.37442017 C126.67459854 738.79443237 126.67459854 738.79443237 126.04968262 737.18252563 C124.90522172 734.23073152 123.76034418 731.27909944 122.61526489 728.32754517 C122.27987198 727.46260437 121.94447906 726.59766357 121.59892273 725.70651245 C121.2888176 724.90759583 120.97871246 724.1086792 120.65921021 723.28555298 C120.25910736 722.25437347 120.25910736 722.25437347 119.85092163 721.20236206 C118.92507906 718.83827969 117.98006783 716.48174 117.03713989 714.12442017 C66.21713989 714.12442017 15.39713989 714.12442017 -36.96286011 714.12442017 Z " fill="#000000" transform="translate(128.96286010742188,0.875579833984375)"/>
<path d="M0 0 C14 0 14 0 17 1 C16.34 2.65 15.68 4.3 15 6 C13.35 6 11.7 6 10 6 C9.34 4.68 8.68 3.36 8 2 C7.67 3.32 7.34 4.64 7 6 C5.02 6 3.04 6 1 6 C0.67 4.02 0.34 2.04 0 0 Z " fill="#000000" transform="translate(95,930)"/>
<path d="M0 0 C2.64 0 5.28 0 8 0 C7.67 1.98 7.34 3.96 7 6 C5.02 6 3.04 6 1 6 C0.67 4.02 0.34 2.04 0 0 Z " fill="#000000" transform="translate(86,930)"/>
<path d="M0 0 C1.98 0 3.96 0 6 0 C6 1.98 6 3.96 6 6 C4.02 6 2.04 6 0 6 C0 4.02 0 2.04 0 0 Z " fill="#000000" transform="translate(182,930)"/>
<path d="M0 0 C1.98 0 3.96 0 6 0 C6 1.98 6 3.96 6 6 C5.38125 5.814375 4.7625 5.62875 4.125 5.4375 C1.95839822 4.76313824 1.95839822 4.76313824 0 6 C0 4.02 0 2.04 0 0 Z " fill="#000000" transform="translate(245,930)"/>
<path d="M0 0 C1.65 0 3.3 0 5 0 C5 1.98 5 3.96 5 6 C3.35 6 1.7 6 0 6 C-1.125 2.25 -1.125 2.25 0 0 Z M2 1 C2 2.32 2 3.64 2 5 C2.66 4.67 3.32 4.34 4 4 C3.67 3.01 3.34 2.02 3 1 C2.67 1 2.34 1 2 1 Z " fill="#000000" transform="translate(165,930)"/>
<path d="M0 0 C1.2065625 0.0309375 1.2065625 0.0309375 2.4375 0.0625 C2.1075 0.7225 1.7775 1.3825 1.4375 2.0625 C0.4475 1.7325 -0.5425 1.4025 -1.5625 1.0625 C-1.2325 1.7225 -0.9025 2.3825 -0.5625 3.0625 C0.4275 3.0625 1.4175 3.0625 2.4375 3.0625 C2.4375 4.0525 2.4375 5.0425 2.4375 6.0625 C0.7875 6.0625 -0.8625 6.0625 -2.5625 6.0625 C-2.94468767 4.40635343 -3.27645102 2.73792976 -3.5625 1.0625 C-2.5625 0.0625 -2.5625 0.0625 0 0 Z " fill="#000000" transform="translate(211.5625,929.9375)"/>
<path d="M0 0 C1.2065625 0.0309375 1.2065625 0.0309375 2.4375 0.0625 C2.1075 0.7225 1.7775 1.3825 1.4375 2.0625 C0.4475 1.7325 -0.5425 1.4025 -1.5625 1.0625 C-1.2325 1.7225 -0.9025 2.3825 -0.5625 3.0625 C0.4275 3.0625 1.4175 3.0625 2.4375 3.0625 C2.4375 4.0525 2.4375 5.0425 2.4375 6.0625 C0.7875 6.0625 -0.8625 6.0625 -2.5625 6.0625 C-2.94468767 4.40635343 -3.27645102 2.73792976 -3.5625 1.0625 C-2.5625 0.0625 -2.5625 0.0625 0 0 Z " fill="#000000" transform="translate(192.5625,929.9375)"/>
<path d="M0 0 C1.65 0 3.3 0 5 0 C6.125 3.75 6.125 3.75 5 6 C3.35 6 1.7 6 0 6 C0 4.02 0 2.04 0 0 Z M2 1 C2 2.32 2 3.64 2 5 C2.66 4.67 3.32 4.34 4 4 C3.67 3.01 3.34 2.02 3 1 C2.67 1 2.34 1 2 1 Z " fill="#000000" transform="translate(238,930)"/>
<path d="M0 0 C1.65 0 3.3 0 5 0 C5 1.98 5 3.96 5 6 C3.35 6 1.7 6 0 6 C0 4.02 0 2.04 0 0 Z " fill="#000000" transform="translate(221,930)"/>
<path d="M0 0 C1.2065625 0.0309375 1.2065625 0.0309375 2.4375 0.0625 C2.4375 0.7225 2.4375 1.3825 2.4375 2.0625 C1.1175 1.7325 -0.2025 1.4025 -1.5625 1.0625 C-1.5625 2.3825 -1.5625 3.7025 -1.5625 5.0625 C-0.2425 4.7325 1.0775 4.4025 2.4375 4.0625 C2.4375 4.7225 2.4375 5.3825 2.4375 6.0625 C0.7875 6.0625 -0.8625 6.0625 -2.5625 6.0625 C-2.94468767 4.40635343 -3.27645102 2.73792976 -3.5625 1.0625 C-2.5625 0.0625 -2.5625 0.0625 0 0 Z " fill="#000000" transform="translate(234.5625,929.9375)"/>
<path d="M0 0 C0.99 0.33 1.98 0.66 3 1 C3.33 2.65 3.66 4.3 4 6 C2.02 6 0.04 6 -2 6 C-1.34 4.02 -0.68 2.04 0 0 Z " fill="#000000" transform="translate(203,930)"/>
<path d="M0 0 C1.65 0.33 3.3 0.66 5 1 C4.67 2.65 4.34 4.3 4 6 C2.35 5.67 0.7 5.34 -1 5 C-0.67 3.35 -0.34 1.7 0 0 Z M1 1 C1 2.32 1 3.64 1 5 C1.66 5 2.32 5 3 5 C3 3.68 3 2.36 3 1 C2.34 1 1.68 1 1 1 Z " fill="#000000" transform="translate(153,930)"/>
<path d="M0 0 C0.66 0 1.32 0 2 0 C2.66 1.98 3.32 3.96 4 6 C2.02 6 0.04 6 -2 6 C-1.125 1.125 -1.125 1.125 0 0 Z " fill="#000000" transform="translate(141,930)"/>
<path d="M0 0 C1.65 0 3.3 0 5 0 C5 0.99 5 1.98 5 3 C4.01 3 3.02 3 2 3 C2 3.66 2 4.32 2 5 C2.99 5.33 3.98 5.66 5 6 C3.35 6 1.7 6 0 6 C0 4.02 0 2.04 0 0 Z " fill="#000000" transform="translate(215,930)"/>
<path d="M0 0 C1.65 0 3.3 0 5 0 C4.67 1.32 4.34 2.64 4 4 C3.34 4 2.68 4 2 4 C2 4.66 2 5.32 2 6 C1.34 6 0.68 6 0 6 C0 4.02 0 2.04 0 0 Z M2 1 C3 3 3 3 3 3 Z " fill="#000000" transform="translate(196,930)"/>
<path d="M0 0 C1.32 0 2.64 0 4 0 C4.33 1.98 4.66 3.96 5 6 C3.33333333 6 1.66666667 6 0 6 C0 4.02 0 2.04 0 0 Z " fill="#000000" transform="translate(172,930)"/>
<path d="M0 0 C1.65 0 3.3 0 5 0 C4.67 0.66 4.34 1.32 4 2 C3.34 2 2.68 2 2 2 C2 2.66 2 3.32 2 4 C2.99 4 3.98 4 5 4 C5 4.66 5 5.32 5 6 C3.35 6 1.7 6 0 6 C-1.125 2.25 -1.125 2.25 0 0 Z " fill="#000000" transform="translate(146,930)"/>
<path d="M0 0 C1.32 0 2.64 0 4 0 C4.33 1.98 4.66 3.96 5 6 C3.33333333 6 1.66666667 6 0 6 C0 4.02 0 2.04 0 0 Z " fill="#000000" transform="translate(133,930)"/>
<path d="M0 0 C0.33 0 0.66 0 1 0 C1 1.65 1 3.3 1 5 C1.66 5 2.32 5 3 5 C3 3.35 3 1.7 3 0 C3.66 0 4.32 0 5 0 C5 1.65 5 3.3 5 5 C3.35 5.33 1.7 5.66 0 6 C0 4.02 0 2.04 0 0 Z " fill="#000000" transform="translate(116,930)"/>
<path d="M0 0 C1.98 0 3.96 0 6 0 C5.01 0.495 5.01 0.495 4 1 C4 2.65 4 4.3 4 6 C3.34 6 2.68 6 2 6 C2 4.35 2 2.7 2 1 C1.34 0.67 0.68 0.34 0 0 Z " fill="#000000" transform="translate(126,930)"/>
<path d="M0 0 C0.66 0 1.32 0 2 0 C2 1.65 2 3.3 2 5 C2.99 5.33 3.98 5.66 5 6 C3.35 6 1.7 6 0 6 C0 4.02 0 2.04 0 0 Z " fill="#000000" transform="translate(159,930)"/>
<path d="M0 0 C0.66 0 1.32 0 2 0 C2 1.65 2 3.3 2 5 C2.99 5.33 3.98 5.66 5 6 C3.35 6 1.7 6 0 6 C0 4.02 0 2.04 0 0 Z " fill="#000000" transform="translate(122,930)"/>
<path d="M0 0 C0.99 0.33 1.98 0.66 3 1 C3 2.65 3 4.3 3 6 C2.01 5.67 1.02 5.34 0 5 C0 3.35 0 1.7 0 0 Z " fill="#010101" transform="translate(178,930)"/>
<path d="M0 0 C2 1 2 1 2 1 Z " fill="#000000" transform="translate(228,935)"/>
<path d="M0 0 C2 1 2 1 2 1 Z " fill="#000000" transform="translate(112,935)"/>
</svg>
